SplineFontDB: 3.0
FontName: aasheim
FullName: aasheim
FamilyName: aasheim
Weight: Regular
Copyright: Copyright (c) 2018, Jon Tore Hafstad
UComments: "2018-11-26: Created with FontForge (http://fontforge.org)"
Version: 001.000
ItalicAngle: 0
UnderlinePosition: -100
UnderlineWidth: 50
Ascent: 800
Descent: 200
InvalidEm: 0
LayerCount: 3
Layer: 0 0 "Back" 1
Layer: 1 0 "Fore" 0
Layer: 2 0 "Back 2" 1
HasVMetrics: 1
XUID: [1021 698 -643472631 6801391]
StyleMap: 0x0000
FSType: 0
OS2Version: 0
OS2_WeightWidthSlopeOnly: 0
OS2_UseTypoMetrics: 1
CreationTime: 1543223809
ModificationTime: 1543707220
PfmFamily: 17
TTFWeight: 400
TTFWidth: 5
LineGap: 90
VLineGap: 90
OS2TypoAscent: 0
OS2TypoAOffset: 1
OS2TypoDescent: 0
OS2TypoDOffset: 1
OS2TypoLinegap: 90
OS2WinAscent: 0
OS2WinAOffset: 1
OS2WinDescent: 0
OS2WinDOffset: 1
HheadAscent: 0
HheadAOffset: 1
HheadDescent: 0
HheadDOffset: 1
OS2Vendor: 'PfEd'
MarkAttachClasses: 1
DEI: 91125
LangName: 1033
Encoding: ISO8859-1
UnicodeInterp: none
NameList: AGL For New Fonts
DisplaySize: -36
AntiAlias: 1
FitToEm: 0
WidthSeparation: 150
WinInfo: 18 18 7
BeginPrivate: 0
EndPrivate
Grid
-1000 1124 m 0
 2000 1124 l 1024
307 572 m 5
 382 572 l 5
 382 497 l 5
 307 497 l 5
 307 572 l 5
340 66 m 4
 447 66 553.0078125 82 553.0078125 140 c 4
 553.0078125 223 549.813476562 709 549.813476562 846 c 4
 549.813476562 920 446.805664062 964 342.805664062 964 c 4
 238.805664062 964 129 923 129 849 c 4
 129 712 130.194335938 226 130.194335938 143 c 4
 130.194335938 85 233 66 340 66 c 4
342 0 m 5
 185 0 53.1943359375 39 53.1943359375 132 c 4
 53.1943359375 207 52 721 52 860 c 4
 52 1011 204.805664062 1027 342.805664062 1027 c 5
 480.805664062 1027 634.813476562 1008 634.813476562 857 c 4
 634.813476562 718 632.0078125 204 632.0078125 129 c 4
 632.0078125 36 500 0 342 0 c 5
EndSplineSet
TeXData: 1 0 0 1048576 524288 349525 642567 1048576 349525 783286 444596 497025 792723 393216 433062 380633 303038 157286 324010 404750 52429 2506097 1059062 262144

StartChar: e
Encoding: 101 101 0
Width: 604
VWidth: 0
Flags: W
HStem: 4 49.5996<162.293 465.741> 632.158 48.6416<244.431 467.738>
VStem: 43.8516 67.1992<97.0716 405.6> 483.109 74.5234<463.239 617.395> 500.971 59.9785<89.7147 209.596>
LayerCount: 3
Fore
SplineSet
43.05078125 441.599609375 m 0xe8
 43.05078125 555.200195312 82.9345703125 632.505859375 175.051757812 653.599609375 c 0
 216.1953125 663.021484375 317.288085938 680.799804688 368.651367188 680.799804688 c 0
 448.119140625 680.799804688 516.084960938 662.482421875 539.8515625 615.200195312 c 0
 564.651367188 565.861328125 557.6328125 549.110351562 557.6328125 471.200195312 c 0xf0
 557.6328125 460.811523438 557.818359375 421.881835938 557.818359375 410.400390625 c 1
 418.618164062 410.400390625 114.250976562 405.599609375 114.250976562 405.599609375 c 1
 114.250976562 344 111.05078125 235.200195312 111.05078125 157.599609375 c 0
 111.05078125 64.740234375 207.779296875 53.599609375 304.651367188 53.599609375 c 0
 345.482421875 53.599609375 405.4375 59.6376953125 447.05078125 66.400390625 c 0
 498.250976562 74.720703125 500.970703125 164.83203125 500.970703125 196.704101562 c 0
 500.970703125 204.671875 500.651367188 209.599609375 500.651367188 209.599609375 c 1
 499.8984375 209.412109375 498.92578125 209.3125 498.92578125 209.270507812 c 0
 498.92578125 209.251953125 499.096679688 209.244140625 499.524414062 209.244140625 c 0
 502.428710938 209.244140625 506.784179688 210.400390625 560.651367188 210.400390625 c 1
 560.651367188 190.0703125 560.94921875 170.338867188 560.94921875 152.612304688 c 0
 560.94921875 120.11328125 559.9453125 94.353515625 554.250976562 84 c 0
 534.250976562 48.7998046875 502.250976562 4 287.05078125 4 c 0
 191.05078125 4 43.8515625 39.2001953125 43.8515625 138.400390625 c 0
 43.8515625 284 43.05078125 441.599609375 43.05078125 441.599609375 c 0xe8
461.451171875 463.200195312 m 1
 461.451171875 464 483.109375 466.400390625 483.109375 467.200195312 c 0
 483.109375 576 503.8515625 632.158203125 394.250976562 632.158203125 c 0
 318.6640625 632.158203125 214.018554688 615.29296875 155.8515625 566.797851562 c 0
 124.750976562 540.869140625 112.651367188 497.275390625 112.651367188 461.599609375 c 1
 198.250976562 461.599609375 461.451171875 463.200195312 461.451171875 463.200195312 c 1
EndSplineSet
Validated: 524325
EndChar

StartChar: u
Encoding: 117 117 1
Width: 575
VWidth: 0
Flags: W
HStem: 0 36.7998<116.436 286.403>
VStem: 31.9004 74.4004<46.6846 626.967> 471.9 68.8008<6.40039 73.5647 120.045 633.395>
LayerCount: 3
Fore
SplineSet
107.099609375 627.200195312 m 1
 33.5 627.200195312 l 1
 33.5 627.200195312 31.900390625 312 31.900390625 81.599609375 c 0
 31.900390625 20 83.900390625 0 152.701171875 0 c 0
 283.900390625 0 472.701171875 73.599609375 472.701171875 73.599609375 c 0
 472.701171875 73.599609375 471.900390625 25.599609375 471.900390625 6.400390625 c 0
 471.900390625 2.400390625 471.900390625 0 471.900390625 0 c 1
 540.701171875 0 l 1
 540.701171875 272.799804688 543.099609375 476 543.099609375 633.599609375 c 1
 474.30078125 633.599609375 l 1
 474.30078125 633.599609375 471.900390625 352 471.900390625 176 c 0
 471.900390625 87.2001953125 331.900390625 36.7998046875 225.5 36.7998046875 c 0
 159.900390625 36.7998046875 106.30078125 31.2001953125 106.30078125 86.400390625 c 0
 106.30078125 302.400390625 107.099609375 627.200195312 107.099609375 627.200195312 c 1
EndSplineSet
Validated: 524329
EndChar

StartChar: n
Encoding: 110 110 2
Width: 607
VWidth: 0
Flags: W
HStem: 598.4 36.7998<304.597 474.565>
VStem: 50.2998 68.7998<1.80438 515.155 561.634 628.8> 485.5 70.3994<-0.799805 588.288>
LayerCount: 3
Fore
SplineSet
485.5 -0.7998046875 m 1
 555.899414062 -0.7998046875 l 1
 562.299804688 10.400390625 559.099609375 317.599609375 559.099609375 548.799804688 c 0
 559.099609375 610.400390625 507.099609375 635.200195312 438.299804688 635.200195312 c 0
 307.099609375 635.200195312 118.299804688 561.599609375 118.299804688 561.599609375 c 0
 118.299804688 561.599609375 119.099609375 609.599609375 119.099609375 628.799804688 c 0
 119.099609375 632.799804688 119.099609375 635.200195312 119.099609375 635.200195312 c 1
 50.2998046875 635.200195312 l 1
 50.2998046875 362.400390625 47.099609375 159.200195312 47.099609375 1.599609375 c 1
 116.700195312 1.599609375 l 1
 116.700195312 1.599609375 119.099609375 283.200195312 119.099609375 459.200195312 c 0
 119.099609375 548 259.099609375 598.400390625 365.5 598.400390625 c 0
 431.099609375 598.400390625 484.700195312 604 484.700195312 548.799804688 c 0
 484.700195312 332.799804688 485.5 -8.7998046875 485.5 -0.7998046875 c 1
EndSplineSet
Validated: 524325
EndChar

StartChar: o
Encoding: 111 111 3
Width: 572
VWidth: 0
Flags: W
HStem: -0.799805 52.7998<141.257 427.889> 608.8 50.4004<166.613 401.362>
VStem: 40 61.6006<82.6954 557.586> 467.2 63.2002<82.6954 557.586>
LayerCount: 3
Back
Refer: 2 110 N 1 0 0 1 599.292 0 2
Fore
SplineSet
282.400390625 52 m 0
 368 52 467.200195312 68 467.200195312 114.400390625 c 0
 467.200195312 180.799804688 464 408 464 517.599609375 c 0
 464 576.799804688 367.200195312 608.799804688 284 608.799804688 c 0
 200.80078125 608.799804688 101.600585938 576.799804688 101.600585938 517.599609375 c 0
 101.600585938 408 103.200195312 180.799804688 103.200195312 114.400390625 c 0
 103.200195312 68 196.80078125 52 282.400390625 52 c 0
284 -0.7998046875 m 1
 158.400390625 -0.7998046875 41.6005859375 31.2001953125 41.6005859375 105.599609375 c 0
 41.6005859375 165.599609375 40 415.200195312 40 526.400390625 c 0
 40 647.200195312 173.600585938 659.200195312 284 659.200195312 c 1
 394.400390625 659.200195312 532 647.200195312 532 526.400390625 c 0
 532 415.200195312 530.400390625 165.599609375 530.400390625 105.599609375 c 0
 530.400390625 31.2001953125 410.400390625 -0.7998046875 284 -0.7998046875 c 1
EndSplineSet
Validated: 524289
EndChar

StartChar: g
Encoding: 103 103 4
Width: 532
VWidth: 0
Flags: W
HStem: -508 27.2002<55.5557 246.415> 5.59961 51.2002<141.878 366.521> 610.4 57.5996<158.587 371.652>
VStem: 55.5557 75.2002<71.4439 108 535.2 581.823> 405.155 66.4004<-452.901 -377.6 89.0997 129.6 533.6 580.878 633.544 664>
LayerCount: 3
Back
SplineSet
536.35546875 -554 m 0
 495.724609375 -603.473632812 109.249023438 -600.571289062 109.249023438 -600.571289062 c 1
 109.249023438 -634.71875 l 17
 125.474609375 -635.268554688 142.876953125 -635.555664062 161.541015625 -635.555664062 c 0
 281.541015625 -635.555664062 616.35546875 -678 616.35546875 -554 c 1024
109.249023438 -634.71875 m 1025
EndSplineSet
Fore
SplineSet
306.755859375 -514.400390625 m 17
 402.755859375 -514.400390625 471.555664062 -508.799804688 471.555664062 -409.599609375 c 0
 471.555664062 -62.400390625 476.35546875 533.599609375 476.35546875 533.599609375 c 1
 476.35546875 533.599609375 477.155273438 615.200195312 477.155273438 664 c 1
 405.155273438 664 l 1
 405.155273438 656.799804688 405.155273438 632 405.155273438 633.599609375 c 1
 349.955078125 657.599609375 318.755859375 668 256.35546875 668 c 0
 140.35546875 668 55.5556640625 648.799804688 55.5556640625 535.200195312 c 2
 55.5556640625 103.200195312 l 2
 55.5556640625 7.2001953125 256.35546875 5.599609375 256.35546875 5.599609375 c 1
 357.955078125 5.599609375 405.155273438 28 405.155273438 28 c 1
 405.155273438 -377.599609375 l 1
 405.155273438 -440.799804688 405.155273438 -450.400390625 376.35546875 -456.799804688 c 0
 281.155273438 -476.799804688 55.5556640625 -480.799804688 55.5556640625 -480.799804688 c 1
 55.5556640625 -480.799804688 53.955078125 -497.599609375 55.5556640625 -508 c 1
 306.755859375 -514.400390625 l 17
405.155273438 533.599609375 m 0
 405.155273438 424 405.155273438 196 405.155273438 129.599609375 c 0
 405.155273438 83.2001953125 341.955078125 56.7998046875 256.35546875 56.7998046875 c 0
 159.555664062 56.7998046875 130.755859375 71.2001953125 130.755859375 108 c 0
 130.755859375 161.599609375 130.755859375 432 130.755859375 535.200195312 c 0
 130.755859375 576 158.755859375 610.400390625 256.35546875 610.400390625 c 0
 339.555664062 610.400390625 405.155273438 592.799804688 405.155273438 533.599609375 c 0
EndSplineSet
Validated: 524293
EndChar

StartChar: h
Encoding: 104 104 5
Width: 593
VWidth: 0
Flags: W
HStem: 597.6 36.8008<296.577 467.565>
VStem: 40.1006 72<1.00458 514.355> 478.5 70.4004<-1.59961 587.487>
LayerCount: 3
Fore
SplineSet
478.5 -1.599609375 m 1
 548.900390625 -1.599609375 l 1
 555.299804688 9.599609375 552.100585938 316.799804688 552.100585938 548 c 0
 552.100585938 609.599609375 500.100585938 634.400390625 431.299804688 634.400390625 c 0
 300.100585938 634.400390625 102.5 556.799804688 102.5 556.799804688 c 0
 102.5 556.799804688 102.5 1115.20019531 102.5 1134.40039062 c 0
 40.1005859375 1134.40039062 l 1
 40.1005859375 861.599609375 40.1005859375 158.400390625 40.1005859375 0.7998046875 c 1
 109.700195312 0.7998046875 l 1
 109.700195312 0.7998046875 112.100585938 282.400390625 112.100585938 458.400390625 c 0
 112.100585938 547.200195312 252.100585938 597.599609375 358.5 597.599609375 c 0
 424.100585938 597.599609375 477.700195312 603.200195312 477.700195312 548 c 0
 477.700195312 332 478.5 -9.599609375 478.5 -1.599609375 c 1
EndSplineSet
Validated: 524325
EndChar

StartChar: m
Encoding: 109 109 6
Width: 1050
VWidth: 0
Flags: W
HStem: 0 21G<482.6 555.884 931.4 1005> 599.2 36.7998<301.698 471.247 709.481 920.465>
VStem: 47.4004 68.7998<2.60516 515.955 562.435 636> 482.6 70.4004<0 533.834> 930.6 74.4004<0 589.087>
LayerCount: 3
Fore
SplineSet
532.201171875 582.400390625 m 1
 532.201171875 582.400390625 753 636 884.200195312 636 c 0
 953 636 1005 611.200195312 1005 549.599609375 c 0
 1005 318.400390625 1008.20019531 11.2001953125 1001.79980469 0 c 1
 931.400390625 0 l 1
 931.400390625 -8 930.599609375 333.599609375 930.599609375 549.599609375 c 0
 930.599609375 604.799804688 877 599.200195312 811.400390625 599.200195312 c 0
 705 599.200195312 559.400390625 587.200195312 556.282226562 479.200195312 c 0
 549.973632812 260.673828125 558.767578125 10.0927734375 553 0 c 1
 482.599609375 0 l 1
 482.599609375 -8 481.799804688 333.599609375 481.799804688 549.599609375 c 0
 481.799804688 604.799804688 428.200195312 599.200195312 362.599609375 599.200195312 c 0
 256.200195312 599.200195312 116.200195312 548.799804688 116.200195312 460 c 0
 116.200195312 284 113.799804688 2.400390625 113.799804688 2.400390625 c 1
 44.2001953125 2.400390625 l 1
 44.2001953125 160 47.400390625 363.200195312 47.400390625 636 c 1
 116.200195312 636 l 1
 116.200195312 636 116.200195312 633.599609375 116.200195312 629.599609375 c 0
 116.200195312 610.400390625 115.400390625 562.400390625 115.400390625 562.400390625 c 0
 115.400390625 562.400390625 304.200195312 636 435.400390625 636 c 0
 489.865234375 636 516.255859375 619.4375 532.201171875 582.400390625 c 1
EndSplineSet
Validated: 524321
EndChar

StartChar: d
Encoding: 100 100 7
Width: 623
VWidth: 0
Flags: W
HStem: 14.4004 48.7998<183.112 448.573> 616.8 57.6006<163.147 443.553>
VStem: 52.7002 69.5996<110.616 144 548 583.646> 487.1 83.2002<92.381 120.8 548 583.491>
LayerCount: 3
Fore
SplineSet
570.299804688 115.200195312 m 1
 570.299804688 178.400390625 570.299804688 377.599609375 570.299804688 546.400390625 c 0
 570.299804688 780.799804688 570.299804688 1148 570.299804688 1148 c 1
 486.299804688 1148 l 25
 486.299804688 652.799804688 l 1
 486.299804688 652.799804688 377.5 674.400390625 318.299804688 674.400390625 c 0
 207.899414062 674.400390625 52.7001953125 668.799804688 52.7001953125 548 c 0
 52.7001953125 436.799804688 54.2998046875 180.799804688 54.2998046875 120.799804688 c 0
 54.2998046875 46.400390625 175.899414062 14.400390625 301.5 14.400390625 c 0
 367.899414062 14.400390625 487.899414062 29.599609375 487.899414062 29.599609375 c 1
 487.899414062 12 l 1
 570.299804688 12 l 1
 570.299804688 115.200195312 l 1
487.099609375 120.799804688 m 1
 487.099609375 84 395.899414062 63.2001953125 299.099609375 63.2001953125 c 0
 213.5 63.2001953125 124.700195312 97.599609375 124.700195312 144 c 0
 124.700195312 210.400390625 122.299804688 438.400390625 122.299804688 548 c 0
 122.299804688 607.200195312 233.5 616.799804688 316.700195312 616.799804688 c 0
 414.299804688 616.799804688 487.099609375 588.799804688 487.099609375 548 c 0
 487.099609375 444.799804688 487.099609375 174.400390625 487.099609375 120.799804688 c 1
EndSplineSet
Validated: 524297
EndChar

StartChar: k
Encoding: 107 107 8
Width: 601
VWidth: 0
Flags: W
VStem: 45.0996 68.8008<6.23549 502>
LayerCount: 3
Fore
SplineSet
392.75390625 809.200195312 m 1
 113.900390625 563.599609375 l 1
 113.900390625 1138.79980469 l 1
 45.099609375 1138.79980469 l 1
 45.099609375 866 47.099609375 163.599609375 47.099609375 6 c 1
 117.5 6 l 1
 117.5 6 117.099609375 330 117.099609375 502 c 1
 240.299804688 322.799804688 491.099609375 1.2001953125 485.5 6 c 1
 555.900390625 6 l 1
 551.099609375 18 177.900390625 531.599609375 177.900390625 531.599609375 c 1
 443.954101562 758 l 1
 392.75390625 809.200195312 l 1
EndSplineSet
Validated: 524325
EndChar

StartChar: i
Encoding: 105 105 9
Width: 202
VWidth: 0
Flags: W
HStem: 0 21G<58.0342 137.234> 656.8 88<63.4399 138.56>
VStem: 57 88<663.24 738.36> 58.0342 79.2002<0 552.8>
LayerCount: 3
Fore
SplineSet
57 700.799804688 m 0xe0
 57 724.799804688 77 744.799804688 101 744.799804688 c 0
 125 744.799804688 145 724.799804688 145 700.799804688 c 0
 145 676.799804688 125 656.799804688 101 656.799804688 c 0
 77 656.799804688 57 676.799804688 57 700.799804688 c 0xe0
137.234375 0 m 1xd0
 58.0341796875 0 l 1
 58.0341796875 552.799804688 l 1
 137.234375 552.799804688 l 1
 137.234375 0 l 1xd0
EndSplineSet
Validated: 524289
EndChar

StartChar: j
Encoding: 106 106 10
Width: 298
VWidth: 0
Flags: W
HStem: -519.645 27.9873<28.957 156.613> 664 88<187.483 262.603>
VStem: 181.043 88<670.44 745.56> 186.393 72.25<-470.079 -326.4>
LayerCount: 3
Fore
SplineSet
28.95703125 -518.974609375 m 17xd0
 41.9375 -519.415039062 55.859375 -519.64453125 70.791015625 -519.64453125 c 0
 166.791015625 -519.64453125 258.642578125 -507.200195312 258.642578125 -408 c 0
 258.642578125 -320 258.642578125 -62.400390625 258.642578125 138.400390625 c 0
 258.642578125 485.599609375 258.642578125 526.400390625 258.642578125 526.400390625 c 1
 258.642578125 526.400390625 258.642578125 493.599609375 258.642578125 542.400390625 c 1
 185.59375 542.400390625 l 1
 186.392578125 -326.400390625 l 2
 186.423828125 -358.942382812 187.275390625 -445.869140625 169.7578125 -467.200195312 c 0
 137.251953125 -506.779296875 28.95703125 -491.657226562 28.95703125 -491.657226562 c 1
 28.95703125 -518.974609375 l 17xd0
181.04296875 708 m 0xe0
 181.04296875 732 201.04296875 752 225.04296875 752 c 0
 249.04296875 752 269.04296875 732 269.04296875 708 c 0
 269.04296875 684 249.04296875 664 225.04296875 664 c 0
 201.04296875 664 181.04296875 684 181.04296875 708 c 0xe0
28.95703125 -518.974609375 m 1025
EndSplineSet
Validated: 524325
EndChar

StartChar: a
Encoding: 97 97 11
Width: 609
VWidth: 0
Flags: W
HStem: 0 49.5996<144.046 462.294> 544.8 44<182.61 440.21> 617.6 20G<490.1 558.9>
VStem: 50.0996 73.5996<71.3896 500.902> 490.9 68<0 28.7998 70.6194 507.48 577.6 637.6>
LayerCount: 3
Fore
SplineSet
490.900390625 577.599609375 m 1
 490.900390625 597.599609375 490.099609375 617.599609375 490.099609375 637.599609375 c 1
 558.900390625 637.599609375 l 1
 558.900390625 0 l 1
 558.900390625 0 509.30078125 0 489.30078125 0 c 9
 489.30078125 28.7998046875 l 1
 489.30078125 28.7998046875 396.5 0 294.900390625 0 c 1
 294.900390625 0 50.099609375 3.2001953125 50.099609375 99.2001953125 c 1
 50.099609375 468.799804688 l 1
 50.099609375 576.799804688 181.30078125 588.799804688 295.69921875 588.799804688 c 1
 359.69921875 588.799804688 490.900390625 577.599609375 490.900390625 577.599609375 c 1
124.5 468.799804688 m 1
 124.5 344.799804688 123.69921875 139.200195312 123.69921875 99.2001953125 c 0
 123.69921875 62.400390625 198.099609375 49.599609375 294.900390625 49.599609375 c 0
 380.5 49.599609375 491.69921875 52.7998046875 491.69921875 99.2001953125 c 0
 491.69921875 165.599609375 490.099609375 359.200195312 490.099609375 468.799804688 c 0
 490.099609375 528 378.900390625 544.799804688 295.69921875 544.799804688 c 0
 201.30078125 544.799804688 129.30078125 507.200195312 124.5 468.799804688 c 1
EndSplineSet
Validated: 524289
EndChar

StartChar: p
Encoding: 112 112 12
Width: 619
VWidth: 0
Flags: W
HStem: 0 57.5996<177.446 457.852> 611.2 48.7998<172.426 437.888> 644.8 21G<133.1 133.1>
VStem: 50.6992 83.2012<90.9087 126.4 553.6 582.019> 498.699 69.6016<90.7536 126.4 530.4 563.784>
LayerCount: 3
Fore
SplineSet
50.69921875 559.200195312 m 1xb8
 50.69921875 496 50.69921875 296.799804688 50.69921875 128 c 0
 50.69921875 -106.400390625 50.69921875 -473.599609375 50.69921875 -473.599609375 c 1
 134.69921875 -473.599609375 l 25
 134.69921875 21.599609375 l 1
 134.69921875 21.599609375 243.5 0 302.69921875 0 c 0
 413.099609375 0 568.30078125 5.599609375 568.30078125 126.400390625 c 0
 568.30078125 237.599609375 566.69921875 493.599609375 566.69921875 553.599609375 c 0
 566.69921875 628 445.099609375 660 319.5 660 c 0xd8
 253.099609375 660 133.099609375 644.799804688 133.099609375 644.799804688 c 1
 133.099609375 662.400390625 l 1
 50.69921875 662.400390625 l 1
 50.69921875 559.200195312 l 1xb8
133.900390625 553.599609375 m 1
 133.900390625 590.400390625 225.099609375 611.200195312 321.900390625 611.200195312 c 0
 407.5 611.200195312 496.30078125 576.799804688 496.30078125 530.400390625 c 0
 496.30078125 464 498.69921875 236 498.69921875 126.400390625 c 0
 498.69921875 67.2001953125 387.5 57.599609375 304.30078125 57.599609375 c 0
 206.69921875 57.599609375 133.900390625 85.599609375 133.900390625 126.400390625 c 0
 133.900390625 229.599609375 133.900390625 500 133.900390625 553.599609375 c 1
EndSplineSet
Validated: 524297
EndChar

StartChar: r
Encoding: 114 114 13
Width: 569
VWidth: 0
Flags: W
HStem: 604.8 38.4004<280.029 459.788>
VStem: 31.7002 68.7998<9.80438 512.873 569.634 636.8>
LayerCount: 3
Fore
SplineSet
540.5 556.799804688 m 1
 540.5 618.400390625 488.5 643.200195312 419.700195312 643.200195312 c 0
 288.5 643.200195312 99.7001953125 569.599609375 99.7001953125 569.599609375 c 0
 99.7001953125 569.599609375 100.5 617.599609375 100.5 636.799804688 c 0
 100.5 640.799804688 100.5 643.200195312 100.5 643.200195312 c 1
 31.7001953125 643.200195312 l 1
 31.7001953125 370.400390625 28.5 167.200195312 28.5 9.599609375 c 1
 98.099609375 9.599609375 l 1
 98.099609375 9.599609375 100.5 291.200195312 100.5 467.200195312 c 0
 100.5 556 305.299804688 604.799804688 411.700195312 604.799804688 c 0
 477.299804688 604.799804688 466.099609375 556.799804688 466.099609375 556.799804688 c 1
 466.099609375 556.799804688 511.700195312 556.799804688 540.5 556.799804688 c 1
EndSplineSet
Validated: 524329
EndChar

StartChar: b
Encoding: 98 98 14
Width: 635
VWidth: 0
Flags: W
HStem: 2.40039 48.7998<180.426 445.888> 604.8 57.6006<185.446 465.852>
VStem: 58.6992 83.2012<0 17.5996 80.381 571.491 640.8 1136> 506.699 69.6016<98.6158 571.646>
LayerCount: 3
Fore
SplineSet
58.69921875 103.200195312 m 1
 58.69921875 166.400390625 58.69921875 365.599609375 58.69921875 534.400390625 c 0
 58.69921875 768.799804688 58.69921875 1136 58.69921875 1136 c 1
 142.69921875 1136 l 25
 142.69921875 640.799804688 l 1
 142.69921875 640.799804688 251.5 662.400390625 310.69921875 662.400390625 c 0
 421.099609375 662.400390625 576.30078125 656.799804688 576.30078125 536 c 0
 576.30078125 424.799804688 574.69921875 168.799804688 574.69921875 108.799804688 c 0
 574.69921875 34.400390625 453.099609375 2.400390625 327.5 2.400390625 c 0
 261.099609375 2.400390625 141.099609375 17.599609375 141.099609375 17.599609375 c 1
 141.099609375 0 l 1
 58.69921875 0 l 1
 58.69921875 103.200195312 l 1
141.900390625 108.799804688 m 1
 141.900390625 72 233.099609375 51.2001953125 329.900390625 51.2001953125 c 0
 415.5 51.2001953125 504.30078125 85.599609375 504.30078125 132 c 0
 504.30078125 198.400390625 506.69921875 426.400390625 506.69921875 536 c 0
 506.69921875 595.200195312 395.5 604.799804688 312.30078125 604.799804688 c 0
 214.69921875 604.799804688 141.900390625 576.799804688 141.900390625 536 c 0
 141.900390625 432.799804688 141.900390625 162.400390625 141.900390625 108.799804688 c 1
EndSplineSet
Validated: 524289
EndChar

StartChar: q
Encoding: 113 113 15
Width: 616
VWidth: 0
Flags: W
HStem: -12 57.5996<159.648 440.054> 599.2 48.7998<179.612 445.074>
VStem: 49.2002 69.5996<78.7536 551.784> 482.8 84<-485.6 9.59961 78.9087 570.019 632.8 650.4>
LayerCount: 3
Fore
SplineSet
566.799804688 547.200195312 m 1
 566.799804688 484 566.799804688 284.799804688 566.799804688 116 c 0
 566.799804688 -118.400390625 566.799804688 -485.599609375 566.799804688 -485.599609375 c 1
 482.799804688 -485.599609375 l 25
 482.799804688 9.599609375 l 1
 482.799804688 9.599609375 374 -12 314.799804688 -12 c 0
 204.400390625 -12 49.2001953125 -6.400390625 49.2001953125 114.400390625 c 0
 49.2001953125 225.599609375 50.7998046875 481.599609375 50.7998046875 541.599609375 c 0
 50.7998046875 616 172.400390625 648 298 648 c 0
 364.400390625 648 484.400390625 632.799804688 484.400390625 632.799804688 c 1
 484.400390625 650.400390625 l 1
 566.799804688 650.400390625 l 1
 566.799804688 547.200195312 l 1
483.600585938 541.599609375 m 1
 483.600585938 578.400390625 392.400390625 599.200195312 295.600585938 599.200195312 c 0
 210 599.200195312 121.200195312 564.799804688 121.200195312 518.400390625 c 0
 121.200195312 452 118.799804688 224 118.799804688 114.400390625 c 0
 118.799804688 55.2001953125 230 45.599609375 313.200195312 45.599609375 c 0
 410.799804688 45.599609375 483.600585938 73.599609375 483.600585938 114.400390625 c 0
 483.600585938 217.599609375 483.600585938 488 483.600585938 541.599609375 c 1
EndSplineSet
Validated: 524289
EndChar

StartChar: c
Encoding: 99 99 16
Width: 577
VWidth: 0
Flags: W
HStem: 0 49.5996<150.684 399.171> 603.2 57.5996<154.951 435.632>
VStem: 30.8789 79.2012<81.4869 107.2 534.4 568.173> 475.68 70.4414<108.918 147.726 534.4 569.273>
LayerCount: 3
Fore
SplineSet
546.080078125 534.400390625 m 1
 546.080078125 533.599609375 l 0
 546.080078125 654.400390625 390.87890625 660.799804688 280.48046875 660.799804688 c 0
 164.48046875 660.799804688 30.87890625 648 30.87890625 534.400390625 c 0
 30.87890625 429.599609375 30.87890625 165.599609375 30.87890625 102.400390625 c 0
 30.87890625 6.400390625 184.15625 -0.8544921875 315.353515625 0 c 0
 468.13671875 0.9951171875 546.12109375 71.396484375 546.12109375 147.200195312 c 3
 546.12109375 148.525390625 499.732421875 146.955078125 475.6796875 148 c 1
 475.6796875 101.599609375 385.279296875 49.599609375 299.6796875 49.599609375 c 0
 202.87890625 49.599609375 110.080078125 70.400390625 110.080078125 107.200195312 c 0
 110.080078125 160.799804688 110.87890625 431.200195312 110.87890625 534.400390625 c 0
 110.87890625 575.200195312 184.48046875 603.200195312 282.080078125 603.200195312 c 0
 365.279296875 603.200195312 476.48046875 593.599609375 476.48046875 534.400390625 c 0
 531.353515625 534.400390625 487.353515625 534.400390625 546.080078125 534.400390625 c 1
EndSplineSet
Validated: 524325
EndChar

StartChar: l
Encoding: 108 108 17
Width: 236
VWidth: 0
Flags: W
HStem: -0.799805 21G<84.273 158.801> 1109.6 20G<77.1992 157.228>
VStem: 77.1992 80<30.779 1129.6> 84.4004 74.4004<0 1098.02>
LayerCount: 3
Fore
SplineSet
158.80078125 0 m 1xd0
 84.400390625 -0.7998046875 l 1xd0
 77.19921875 1129.59960938 l 1
 157.19921875 1129.59960938 l 1xe0
 158.80078125 0 l 1xd0
EndSplineSet
Validated: 524289
EndChar

StartChar: f
Encoding: 102 102 18
Width: 369
VWidth: 0
Flags: W
HStem: 728 54.4004<25.3955 107.604 190.996 267.604> 1166.4 31.5244<209.138 342.372>
VStem: 108.787 78.4004<4.7998 728 783.2 1143.72>
LayerCount: 3
Back
SplineSet
458.671875 35 m 1
 458.671875 0 l 1
 307.879882812 -8.865234375 171.72265625 19.24609375 169.671875 130 c 0
 165.671875 346 166.40234375 697.806640625 166.40234375 910 c 1
 53.59375 910 l 1
 53.595703125 977 l 1
 163.595703125 977 l 1
 163.595703125 1134 l 1
 254.595703125 1134 l 1
 254.595703125 977 l 1
 356.595703125 977 l 1
 356.59375 910 l 1
 254.59375 910 l 1
 249.671875 108 l 0
 262.197265625 26.1357421875 425.016601562 21.8798828125 458.671875 35 c 1
278.595703125 1427.28125 m 0
 319.2265625 1476.75488281 454.595703125 1457.85253906 454.595703125 1457.85253906 c 1
 454.595703125 1492 l 17
 438.370117188 1492.54980469 420.967773438 1492.83691406 402.303710938 1492.83691406 c 0
 282.303710938 1492.83691406 167.489257812 1477.28125 167.489257812 1353.28125 c 1024
454.595703125 1492 m 1025
EndSplineSet
Fore
SplineSet
107.795898438 783.200195312 m 1
 107.795898438 860.770507812 108.83984375 1033.12988281 111.795898438 1098.40039062 c 0
 113.875 1144.32519531 164.328125 1190.86230469 249.075195312 1197.92480469 c 0
 287.475585938 1201.125 343.795898438 1196 343.795898438 1196 c 0
 343.795898438 1196 340.7109375 1164.28320312 343.795898438 1168.79980469 c 0
 343.795898438 1168.79980469 341.6328125 1167.00585938 272.595703125 1166.40039062 c 0
 181.395507812 1165.59960938 188.595703125 1124 188.595703125 1043.20019531 c 0
 188.595703125 932.799804688 191.604492188 802.400390625 190.99609375 782.400390625 c 1
 267.795898438 782.400390625 l 1
 267.604492188 728 l 1
 186.00390625 728 l 1
 187.1875 4.7998046875 l 1
 108.787109375 4.7998046875 l 1
 107.604492188 728 l 1
 25.2041015625 728 l 1
 25.3955078125 782.400390625 l 1
 107.795898438 783.200195312 l 1
EndSplineSet
Validated: 524325
EndChar

StartChar: t
Encoding: 116 116 19
Width: 412
VWidth: 0
Flags: HW
HStem: 0 28<232.355 358.088> 728 53.5996<34.0268 122.027 194.828 276.425>
VStem: 122.027 72.8008<54.9627 728 781.6 907.2>
LayerCount: 3
Fore
SplineSet
358.087890625 28 m 1
 358.087890625 0 l 1
 237.454101562 -7.091796875 128.528320312 15.396484375 126.887695312 104 c 0
 123.6875 276.799804688 124.272460938 558.24609375 124.272460938 728 c 1
 34.025390625 728 l 1
 34.0263671875 781.599609375 l 1
 122.026367188 781.599609375 l 1
 122.026367188 907.200195312 l 1
 194.827148438 907.200195312 l 1
 194.827148438 781.599609375 l 1
 276.426757812 781.599609375 l 1
 276.424804688 728 l 1
 194.825195312 728 l 1
 190.887695312 86.400390625 l 0
 200.908203125 20.908203125 331.163085938 17.50390625 358.087890625 28 c 1
EndSplineSet
EndChar

StartChar: s
Encoding: 115 115 20
Width: 542
VWidth: 0
Flags: HWO
HStem: 12 67.2002<125.757 407.917>
VStem: 428.957 70.3994<100.82 270.701>
LayerCount: 3
Fore
SplineSet
499.356445312 191.200195312 m 0
 499.356445312 154.400390625 499.356445312 146.400390625 499.356445312 128 c 0
 499.356445312 38.400390625 406.556640625 12 268.95703125 12 c 0
 196.95703125 12 150.556640625 15.2001953125 -24.6435546875 93.599609375 c 1
 -12.6435546875 117.599609375 l 1
 0 165 l 1
 155.200195312 96.2001953125 192.157226562 79.2001953125 268.95703125 79.2001953125 c 0
 365.756835938 79.2001953125 414.556640625 84.7998046875 426.556640625 128 c 0
 426.556640625 128 428.95703125 171.200195312 428.95703125 183.200195312 c 0
 428.95703125 324 308.399366926 377.423706563 144.95703125 440.799804688 c 0
 -51.1635529647 516.847160092 129 849 480.95703125 592.799804688 c 1
 480.95703125 592.799804688 450.556640625 548 444.157226562 559.200195312 c 1
 123.356445312 760 115.356445312 523.200195312 165.756835938 503.200195312 c 0
 426.556640625 401.599609375 499.356445312 351.200195312 499.356445312 191.200195312 c 0
EndSplineSet
EndChar

StartChar: x
Encoding: 120 120 21
Width: 533
VWidth: 0
Flags: W
HStem: 624.8 20G<105.7 192.149 353.125 440.101>
LayerCount: 3
Back
SplineSet
50.900390625 0 m 25
 146.900390625 0 l 25
 544.900390625 804 l 25
 448.900390625 804 l 25
 50.900390625 0 l 25
EndSplineSet
Fore
SplineSet
116.900390625 2.400390625 m 1
 42.5 2.400390625 l 1
 75.30078125 67.2001953125 170.5 242.400390625 230.5 384 c 1
 105.700195312 644.799804688 l 1
 182.5 644.799804688 l 1
 270.5 462.400390625 l 1
 363.30078125 644.799804688 l 1
 440.100585938 644.799804688 l 1
 376.900390625 526.400390625 378.5 521.599609375 312.100585938 387.200195312 c 1
 490.5 2.400390625 l 1
 419.30078125 2.400390625 l 1
 272.100585938 318.400390625 l 1
 272.100585938 318.400390625 116.900390625 4.7998046875 116.900390625 2.400390625 c 1
EndSplineSet
Validated: 524289
EndChar

StartChar: v
Encoding: 118 118 22
Width: 635
VWidth: 0
Flags: W
HStem: 0 21G<295.09 393.9> 604 20G<41.0996 123.215 512.46 593.9>
LayerCount: 3
Fore
SplineSet
303.5 0 m 1
 41.099609375 624 l 1
 114.69921875 624 l 1
 114.69921875 624 229.900390625 332 325.900390625 128 c 1
 421.900390625 332 520.298828125 624 520.298828125 624 c 1
 593.900390625 624 l 1
 593.900390625 624 437.900390625 218.400390625 349.900390625 0 c 1
 303.5 0 303.5 0 303.5 0 c 1
EndSplineSet
Validated: 524289
EndChar

StartChar: w
Encoding: 119 119 23
Width: 922
VWidth: 0
Flags: W
HStem: 0 21G<306.989 377.7 557.775 669> 604 20G<53 135.116 787.561 869>
LayerCount: 3
Fore
SplineSet
433.50390625 354.002929688 m 9
 500.39453125 354.7421875 l 1
 500.39453125 354.7421875 567.911132812 198.313476562 601 128 c 1
 697 332 795.399414062 624 795.399414062 624 c 1
 869 624 l 1
 869 624 713 218.400390625 625 0 c 1
 578.599609375 0 578.599609375 0 578.599609375 0 c 1
 536.951171875 94.1103515625 512.34765625 168.290039062 465.799804688 262.400390625 c 1
 426.809570312 162.559570312 393.600585938 78.9228515625 361.799804688 0 c 1
 315.399414062 0 315.399414062 0 315.399414062 0 c 1
 53 624 l 1
 126.599609375 624 l 1
 126.599609375 624 241.799804688 332 337.799804688 128 c 1
 370.780273438 198.083984375 404.043945312 278.5546875 433.50390625 354.002929688 c 9
EndSplineSet
Validated: 524289
EndChar

StartChar: z
Encoding: 122 122 24
Width: 646
VWidth: 0
Flags: W
HStem: 0 64<194.6 597.8> 564 48.7998<101.8 456.2>
LayerCount: 3
Fore
SplineSet
101.799804688 564 m 1
 101.799804688 612.799804688 l 1
 565.799804688 612.799804688 l 2
 194.599609375 64 l 1
 565.799804688 64 l 1
 597.799804688 64 l 1
 597.799804688 32 l 1
 597.799804688 0 l 1
 565.799804688 0 l 2
 48.2001953125 0 l 1
 456.200195312 564 l 1
 101.799804688 564 l 1
EndSplineSet
Validated: 524289
EndChar

StartChar: y
Encoding: 121 121 25
Width: 624
VWidth: 0
Flags: W
HStem: 613.6 20G<35.5996 117.715 506.962 588.4>
LayerCount: 3
Back
SplineSet
555.599609375 785 m 4
 555.599609375 815 580.599609375 840 610.599609375 840 c 4
 640.599609375 840 665.599609375 815 665.599609375 785 c 4
 665.599609375 755 640.599609375 730 610.599609375 730 c 4
 580.599609375 730 555.599609375 755 555.599609375 785 c 4
562.2890625 678 m 5
 653.599609375 678 l 5
 653.599609375 617 653.599609375 658 653.599609375 658 c 5
 653.599609375 658 653.599609375 607 653.599609375 173 c 4
 653.599609375 -78 653.599609375 -400 653.599609375 -510 c 4
 653.599609375 -634 538.78515625 -649.555664062 418.78515625 -649.555664062 c 4
 146.78515625 -649.555664062 142.78515625 -588.555664062 142.78515625 -541.555664062 c 4
 142.78515625 -468.4296875 l 4
 142.78515625 -469.555664062 l 5
 210.119140625 -469.555664062 233.0078125 -470 239.599609375 -470 c 4
 241.322265625 -470 241.931640625 -469.969726562 241.931640625 -469.893554688 c 4
 241.931640625 -469.823242188 241.421875 -469.71484375 240.78515625 -469.555664062 c 5
 240.78515625 -469.555664062 233.599609375 -494.407226562 233.599609375 -514 c 4
 233.599609375 -620.818359375 463.240234375 -658.719726562 547.599609375 -556 c 4
 569.498046875 -529.336914062 563.326171875 -448.677734375 563.2890625 -408 c 6xd0
 562.2890625 678 l 5
EndSplineSet
Fore
SplineSet
123.599609375 -504 m 1
 106 -504 86.80078125 -497.599609375 68.400390625 -492 c 1
 306 93.599609375 298 69.599609375 291.599609375 69.599609375 c 1
 35.599609375 633.599609375 l 1
 109.19921875 633.599609375 l 1
 109.19921875 633.599609375 224.400390625 341.599609375 320.400390625 137.599609375 c 1
 416.400390625 341.599609375 514.80078125 633.599609375 514.80078125 633.599609375 c 1
 588.400390625 633.599609375 l 1
 588.400390625 633.599609375 378 93.599609375 123.599609375 -504 c 1
EndSplineSet
Validated: 524321
EndChar

StartChar: hyphen
Encoding: 45 45 26
Width: 333
VWidth: 0
Flags: W
HStem: 216 56<69 228>
VStem: 68 160
LayerCount: 3
Fore
SplineSet
68 272 m 5
 228 272 l 5
 228 216 l 5
 69 216 l 5
 68 272 l 5
EndSplineSet
Validated: 1
EndChar

StartChar: T
Encoding: 84 84 27
Width: 433
VWidth: 0
Flags: W
HStem: 0 28<252.798 378.531> 728 53.5996<54.4697 142.47 215.271 296.868>
VStem: 142.47 72.8008<54.9627 728 781.6 907.2>
LayerCount: 3
Fore
SplineSet
378.53125 28 m 1
 378.53125 0 l 1
 257.897460938 -7.091796875 148.971679688 15.396484375 147.331054688 104 c 0
 144.130859375 276.799804688 144.715820312 558.24609375 144.715820312 728 c 1
 54.46875 728 l 1
 54.4697265625 781.599609375 l 1
 142.469726562 781.599609375 l 1
 142.469726562 907.200195312 l 1
 215.270507812 907.200195312 l 1
 215.270507812 781.599609375 l 1
 296.870117188 781.599609375 l 1
 296.868164062 728 l 1
 215.268554688 728 l 1
 211.331054688 86.400390625 l 0
 221.3515625 20.908203125 351.606445312 17.50390625 378.53125 28 c 1
EndSplineSet
Validated: 524321
EndChar

StartChar: zero
Encoding: 48 48 28
Width: 557
VWidth: 0
Flags: W
HStem: 0 52.7998<139.232 416.333> 771.2 50.3994<166.451 382.079>
VStem: 45.375 61.5996<82.722 723.886> 446.182 63.1992<80.4021 720.805>
LayerCount: 3
Fore
SplineSet
275.775390625 52.7998046875 m 0
 361.375 52.7998046875 446.181640625 65.599609375 446.181640625 112 c 0
 446.181640625 178.400390625 443.625 567.200195312 443.625 676.799804688 c 0
 443.625 736 361.21875 771.200195312 278.01953125 771.200195312 c 0
 194.8203125 771.200195312 106.974609375 738.400390625 106.974609375 679.200195312 c 0
 106.974609375 569.599609375 107.9296875 180.799804688 107.9296875 114.400390625 c 0
 107.9296875 68 190.17578125 52.7998046875 275.775390625 52.7998046875 c 0
277.375 0 m 1
 151.775390625 0 46.330078125 31.2001953125 46.330078125 105.599609375 c 0
 46.330078125 165.599609375 45.375 576.799804688 45.375 688 c 0
 45.375 808.799804688 167.619140625 821.599609375 278.01953125 821.599609375 c 1
 388.419921875 821.599609375 511.625 806.400390625 511.625 685.599609375 c 0
 511.625 574.400390625 509.380859375 163.200195312 509.380859375 103.200195312 c 0
 509.380859375 28.7998046875 403.775390625 0 277.375 0 c 1
EndSplineSet
Validated: 524289
EndChar

StartChar: one
Encoding: 49 49 29
Width: 163
VWidth: 0
Flags: W
VStem: 45.5 72<3.2002 812.8>
LayerCount: 3
Fore
SplineSet
45.5 812.799804688 m 1
 117.5 812.799804688 l 1
 117.5 3.2001953125 l 1
 45.5 3.2001953125 l 1
 45.5 812.799804688 l 1
EndSplineSet
Validated: 524289
EndChar

StartChar: two
Encoding: 50 50 30
Width: 524
VWidth: 0
Flags: W
HStem: 0 57.5996<139.2 488>
LayerCount: 3
Fore
SplineSet
93.6005859375 732 m 1
 79.2001953125 760.799804688 l 1
 108 774.400390625 l 1
 390.400390625 914.400390625 561.600585938 712.799804688 381.600585938 441.599609375 c 0
 381.600585938 441.599609375 132 38.400390625 139.200195312 52.7998046875 c 1
 456 57.599609375 l 1
 488 57.599609375 l 1
 488 34.400390625 l 1
 488 0 l 1
 456 0 l 1
 91.2001953125 0 36 0 36 0 c 1
 244.799804688 348 l 1
 244.799804688 348 410.401367188 605.599609375 399.200195312 671.200195312 c 0
 397.366210938 681.943359375 392.799804688 741.599609375 309.600585938 754.400390625 c 0
 258.200195312 762.307617188 185.698242188 741.666992188 136.799804688 717.599609375 c 1
 136 717.599609375 136 716.799804688 136.799804688 717.599609375 c 1
 108 703.200195312 l 1
 93.6005859375 732 l 1
EndSplineSet
Validated: 524325
EndChar

StartChar: three
Encoding: 51 51 31
Width: 523
VWidth: 0
Flags: W
HStem: 750.174 62.626<44.7461 392.188>
LayerCount: 3
Fore
SplineSet
252.987304688 513.599609375 m 1
 392.1875 749.693359375 l 1
 67.466796875 750.173828125 l 1
 44.74609375 750.173828125 l 1
 44.69921875 788.720703125 l 1
 44.69921875 812.799804688 l 1
 67.4189453125 812.799804688 l 1
 345.739257812 813.919921875 497.787109375 811.200195312 497.787109375 811.200195312 c 1
 316.987304688 508.799804688 l 1
 616.1875 249.599609375 453.787109375 -74.2451171875 54.0126953125 15.3740234375 c 1
 25.212890625 28.974609375 l 1
 42.0126953125 91.3740234375 l 1
 70.8125 76.974609375 l 1
 70.0126953125 77.7744140625 70.0126953125 76.974609375 70.8125 76.974609375 c 1
 119.7109375 52.9072265625 201.1953125 48.24609375 252.987304688 52.955078125 c 0
 420.1875 68.154296875 468.228515625 307.200195312 252.987304688 513.599609375 c 1
EndSplineSet
Validated: 524325
EndChar

StartChar: four
Encoding: 52 52 32
Width: 487
VWidth: 0
Flags: W
HStem: 204 56.7998<149.9 387.5>
VStem: 391.5 58.4004<9.60059 204 260.8 647.805>
LayerCount: 3
Fore
SplineSet
387.5 204 m 1
 117.01953125 202.896484375 37.099609375 199.200195312 37.099609375 199.200195312 c 1
 447.5 868.799804688 l 1
 449.900390625 9.6005859375 l 1
 391.5 9.6005859375 l 1
 387.5 204 l 1
387.5 260.799804688 m 1
 387.5 380 391.5 648 391.5 648 c 1
 391.5 648 391.5 654.400390625 149.900390625 260.799804688 c 1
 387.5 260.799804688 l 1
EndSplineSet
Validated: 524321
EndChar

StartChar: five
Encoding: 53 53 33
Width: 530
VWidth: 0
Flags: W
HStem: 4.7998 49.3574<112.737 394.687> 428.8 57.6006<142.505 349.177> 754.975 62.625<147.025 474.226>
VStem: 79.8252 62.6797<486.4 759.068> 420.291 63.2002<79.5977 378.544>
LayerCount: 3
Back
SplineSet
307.225585938 662 m 5
 308.225585938 948.834960938 l 5
 772.100585938 943.717773438 l 5
 793.225585938 943.717773438 l 5
 793.225585938 991.900390625 l 5
 793.225585938 1022 l 5
 772.16015625 1022 l 5
 424.259765625 1023.40039062 224.225585938 1022.71777344 224.225585938 1022.71777344 c 5
 222.225585938 614 l 5
 222.225585938 614 l 5
 215.874023438 614.62109375 542.02734375 509.83203125 608.225585938 447 c 4
 667.225585938 391 776.818359375 275.239257812 590.225585938 139 c 4
 537.724609375 100.666992188 327.514648438 101.916015625 266.392578125 132 c 5
 265.392578125 132 265.392578125 133 266.392578125 132 c 5
 230.392578125 150 l 5
 208.392578125 102 l 5
 188.225585938 59 l 5
 224.392578125 43.4521484375 l 5
 223.392578125 43.4521484375 223.392578125 43.4521484375 224.392578125 43.4521484375 c 5
 641.225585938 -119 1006.81640625 272.01953125 655.225585938 516.452148438 c 4
 546.236328125 592.223632812 470.908203125 588.397460938 307.225585938 662 c 5
EndSplineSet
Fore
SplineSet
45.42578125 51.365234375 m 0
 43.7080078125 52.953125 85.7119140625 99.19921875 85.7119140625 99.19921875 c 1
 85.7119140625 99.19921875 114.225585938 54.1572265625 199.825195312 54.1572265625 c 0
 285.42578125 54.1572265625 420.291015625 58.400390625 420.291015625 104.799804688 c 0
 420.291015625 171.200195312 416.625976562 228.799804688 416.625976562 338.400390625 c 0
 416.625976562 397.599609375 352.913085938 420 199.825195312 428.799804688 c 0
 79.8251953125 428.799804688 l 9
 79.8251953125 486.400390625 l 1
 79.8251953125 818.173828125 l 1
 79.8251953125 818.173828125 179.052734375 818.720703125 457.373046875 817.599609375 c 1
 474.225585938 817.599609375 l 1
 474.225585938 793.520507812 l 1
 474.225585938 754.974609375 l 1
 457.325195312 754.974609375 l 1
 147.025390625 759.068359375 l 1
 142.504882812 486.400390625 l 1
 142.504882812 486.400390625 191.025390625 486.400390625 251.025390625 486.400390625 c 1
 361.42578125 486.400390625 484.625976562 468 484.625976562 347.200195312 c 0
 484.625976562 236 483.491210938 156 483.491210938 96 c 0
 483.491210938 21.599609375 326.225585938 4.7998046875 199.825195312 4.7998046875 c 1
 101.686523438 15.025390625 75.025390625 24 45.42578125 51.365234375 c 0
EndSplineSet
Validated: 524321
EndChar

StartChar: six
Encoding: 54 54 34
Width: 548
VWidth: 0
Flags: W
HStem: 0 52.7998<135.247 412.417> 432.8 50.4004<155.919 376.858> 771.2 50.3994<164.16 388.395>
VStem: 41.5996 61.6006<81.9983 114.4 345.6 392.057 679.2 723.886> 442.4 63.1992<80.4021 112 338.4 378.465>
LayerCount: 3
Fore
SplineSet
505.599609375 103.200195312 m 0
 505.599609375 163.200195312 506.400390625 236 506.400390625 347.200195312 c 0
 506.400390625 468 383.200195312 483.200195312 272.799804688 483.200195312 c 1
 212.799804688 483.200195312 148.799804688 480 103.200195312 456.799804688 c 1
 103.200195312 679.200195312 l 1
 103.200195312 738.400390625 189.599609375 771.200195312 272.799804688 771.200195312 c 0
 356.799804688 771.200195312 409.599609375 756 437.599609375 693.599609375 c 1
 499.200195312 735.200195312 l 1
 499.200195312 785.599609375 383.200195312 821.599609375 272.799804688 821.599609375 c 1
 162.400390625 821.599609375 41.599609375 808.799804688 41.599609375 688 c 1
 41.599609375 688 42.400390625 132.799804688 42.400390625 108 c 0
 42.400390625 33.599609375 147.200195312 0 272.799804688 0 c 1
 399.200195312 0 505.599609375 28.7998046875 505.599609375 103.200195312 c 0
272.799804688 52.7998046875 m 0
 187.200195312 52.7998046875 104 68 104 114.400390625 c 0
 104 180.799804688 101.599609375 236 101.599609375 345.599609375 c 0
 101.599609375 404.799804688 189.599609375 432.799804688 272.799804688 432.799804688 c 0
 356 432.799804688 438.400390625 397.599609375 438.400390625 338.400390625 c 0
 438.400390625 228.799804688 442.400390625 178.400390625 442.400390625 112 c 0
 442.400390625 65.599609375 358.400390625 52.7998046875 272.799804688 52.7998046875 c 0
EndSplineSet
Validated: 524297
EndChar

StartChar: seven
Encoding: 55 55 35
Width: 681
VWidth: 0
Flags: W
HStem: 0 21G<137.946 224.188> 752.8 65.6006<54.0996 518.9>
LayerCount: 3
Fore
SplineSet
214.099609375 0 m 1
 134.900390625 20.7998046875 l 1
 518.900390625 752.799804688 l 1
 86.099609375 752.799804688 l 1
 54.099609375 752.799804688 l 1
 54.099609375 784 l 1
 54.099609375 818.400390625 l 1
 86.099609375 818.400390625 l 1
 478.099609375 818.400390625 626.900390625 818.400390625 626.900390625 818.400390625 c 1
 214.099609375 0 l 1
EndSplineSet
Validated: 524289
EndChar

StartChar: eight
Encoding: 56 56 36
Width: 689
VWidth: 0
Flags: W
HStem: -32 56<203.129 489.191> 497 44<253.228 446.628> 497 24<243.128 454.728> 779 50<253.319 443.075>
VStem: 111.375 61.5527<50.7664 82 405 449.087> 146.928 61<540.148 577 689 737.897> 477.928 71<536.847 577 689 746.852> 513.928 63.3613<48.4021 80 402 446.034>
LayerCount: 3
Fore
SplineSet
349.927734375 521 m 4xb6
 264.328125 521 207.927734375 531 207.927734375 577 c 4
 207.927734375 643 207.927734375 577 211.927734375 689 c 4
 214.927734375 748 264.927734375 779 347.927734375 779 c 4
 430.927734375 779 480.328125 748.200195312 480.328125 689 c 4
 480.328125 579.400390625 477.927734375 643.400390625 477.927734375 577 c 4
 477.927734375 530.600585938 435.52734375 521 349.927734375 521 c 4xb6
347.927734375 497 m 5xd6
 473.927734375 497 548.927734375 503 548.927734375 577 c 4
 548.927734375 637 547.927734375 578 547.927734375 689 c 4
 547.927734375 810 457.927734375 829 347.927734375 829 c 5
 237.927734375 829 155.927734375 808 150.927734375 689 c 4
 145.927734375 578 146.927734375 637 146.927734375 577 c 4
 146.927734375 503 221.927734375 497 347.927734375 497 c 5xd6
345.927734375 24 m 0
 259.927734375 24 175.927734375 36 175.927734375 82 c 0
 175.927734375 149 172.927734375 295 172.927734375 405 c 4
 172.927734375 464 264.927734375 497 347.927734375 497 c 4
 430.927734375 497 509.927734375 461 509.927734375 402 c 4
 509.927734375 293 513.927734375 146 513.927734375 80 c 0xd9
 513.927734375 34 431.927734375 24 345.927734375 24 c 0
345.927734375 -32 m 1
 472.328125 -32 577.2890625 -3.2001953125 577.2890625 71.2001953125 c 0
 577.2890625 131.200195312 577.625 299.799804688 577.625 411 c 4
 577.625 531.799804688 462.328125 541 351.927734375 541 c 5
 241.52734375 541 111.375 534.200195312 111.375 413.400390625 c 4
 111.375 302.200195312 114.23828125 133.599609375 114.23828125 73.599609375 c 0
 114.23828125 -0.7998046875 220.328125 -32 345.927734375 -32 c 1
EndSplineSet
Validated: 524325
EndChar

StartChar: nine
Encoding: 57 57 37
Width: 563
VWidth: 0
Flags: W
HStem: -6.27539 50.3994<167.104 391.34> 332.124 50.4004<178.642 399.581> 762.524 52.7998<143.083 420.252>
VStem: 49.0996 68<432.158 476.924 703.324 737.919> 452.299 61.6016<91.4382 136.124 423.267 469.725 700.924 733.326>
LayerCount: 3
Fore
SplineSet
49.900390625 712.124023438 m 0
 49.900390625 652.124023438 49.099609375 579.32421875 49.099609375 468.124023438 c 0
 49.099609375 347.32421875 172.298828125 332.124023438 282.69921875 332.124023438 c 1
 342.69921875 332.124023438 406.69921875 335.32421875 452.298828125 358.524414062 c 1
 452.298828125 136.124023438 l 1
 452.298828125 76.923828125 365.900390625 44.1240234375 282.69921875 44.1240234375 c 0
 198.69921875 44.1240234375 145.900390625 59.32421875 117.900390625 121.724609375 c 1
 56.298828125 80.1240234375 l 1
 56.298828125 29.724609375 172.298828125 -6.275390625 282.69921875 -6.275390625 c 1
 393.099609375 -6.275390625 513.900390625 6.5244140625 513.900390625 127.32421875 c 1
 513.900390625 127.32421875 513.099609375 682.524414062 513.099609375 707.32421875 c 0
 513.099609375 781.724609375 408.298828125 815.32421875 282.69921875 815.32421875 c 1
 156.298828125 815.32421875 49.900390625 786.524414062 49.900390625 712.124023438 c 0
282.69921875 762.524414062 m 0
 368.298828125 762.524414062 451.5 747.32421875 451.5 700.923828125 c 0
 451.5 634.524414062 453.900390625 579.32421875 453.900390625 469.724609375 c 0
 453.900390625 410.524414062 365.900390625 382.524414062 282.69921875 382.524414062 c 0
 199.5 382.524414062 117.099609375 417.724609375 117.099609375 476.923828125 c 0
 117.099609375 586.524414062 113.099609375 636.923828125 113.099609375 703.32421875 c 0
 113.099609375 749.724609375 197.099609375 762.524414062 282.69921875 762.524414062 c 0
EndSplineSet
Validated: 524297
EndChar

StartChar: comma
Encoding: 44 44 38
Width: 195
VWidth: 0
Flags: W
HStem: -69 137
VStem: 61 77<12 68>
LayerCount: 3
Fore
SplineSet
61 68 m 1
 138 68 l 1
 138 12 l 1
 61 -69 l 1
 61 68 l 1
EndSplineSet
Validated: 1
EndChar

StartChar: period
Encoding: 46 46 39
Width: 204
VWidth: 0
Flags: W
HStem: 0 66.8018<57 135>
VStem: 57 78<0 66.8018>
LayerCount: 3
Fore
SplineSet
57 66.8017578125 m 1
 135 68 l 1
 135 0 l 1
 57 0 l 1
 57 66.8017578125 l 1
EndSplineSet
Validated: 524289
EndChar

StartChar: colon
Encoding: 58 58 40
Width: 138
VWidth: 0
Flags: W
HStem: 128 53.4414<43.2002 105.6> 384 53.4414<43.2002 105.6>
VStem: 43.2002 62.3994<128 181.441 384 437.441>
LayerCount: 3
Fore
SplineSet
43.2001953125 181.44140625 m 1
 105.599609375 182.400390625 l 1
 105.599609375 128 l 1
 43.2001953125 128 l 1
 43.2001953125 181.44140625 l 1
43.2001953125 437.44140625 m 1
 105.599609375 438.400390625 l 1
 105.599609375 384 l 1
 43.2001953125 384 l 1
 43.2001953125 437.44140625 l 1
EndSplineSet
Validated: 524289
EndChar

StartChar: semicolon
Encoding: 59 59 41
Width: 122
VWidth: 0
Flags: W
HStem: 384 53.4414<33.5996 95.999>
VStem: 33.5996 62.3994<141.6 186.4 384 437.441>
LayerCount: 3
Fore
SplineSet
33.599609375 186.400390625 m 1
 95.9990234375 186.400390625 l 1
 95.9990234375 141.599609375 l 1
 33.599609375 76.7998046875 l 1
 33.599609375 186.400390625 l 1
33.599609375 437.44140625 m 1
 95.9990234375 438.400390625 l 1
 95.9990234375 384 l 1
 33.599609375 384 l 1
 33.599609375 437.44140625 l 1
EndSplineSet
Validated: 524289
EndChar

StartChar: plus
Encoding: 43 43 42
Width: 333
VWidth: 0
Flags: W
HStem: 216 56<69 266>
VStem: 140 56<147 344>
LayerCount: 3
Fore
SplineSet
68 272 m 1
 266 272 l 1
 266 216 l 1
 69 216 l 1
 68 272 l 1
140 146 m 1
 140 344 l 1
 196 344 l 1
 196 147 l 1
 140 146 l 1
EndSplineSet
Validated: 5
EndChar

StartChar: A
Encoding: 65 65 43
Width: 609
VWidth: 0
Flags: W
HStem: 0 49.5996<144.046 462.294> 544.8 44<182.61 440.21> 617.6 20G<490.1 558.9>
VStem: 50.0996 73.5996<71.3896 500.902> 490.9 68<0 28.7998 70.6194 507.48 577.6 637.6>
LayerCount: 3
Fore
SplineSet
490.900390625 577.599609375 m 1
 490.900390625 597.599609375 490.099609375 617.599609375 490.099609375 637.599609375 c 1
 558.900390625 637.599609375 l 1
 558.900390625 0 l 1
 558.900390625 0 509.30078125 0 489.30078125 0 c 9
 489.30078125 28.7998046875 l 1
 489.30078125 28.7998046875 396.5 0 294.900390625 0 c 1
 294.900390625 0 50.099609375 3.2001953125 50.099609375 99.2001953125 c 1
 50.099609375 468.799804688 l 1
 50.099609375 576.799804688 181.30078125 588.799804688 295.69921875 588.799804688 c 1
 359.69921875 588.799804688 490.900390625 577.599609375 490.900390625 577.599609375 c 1
124.5 468.799804688 m 1
 124.5 344.799804688 123.69921875 139.200195312 123.69921875 99.2001953125 c 0
 123.69921875 62.400390625 198.099609375 49.599609375 294.900390625 49.599609375 c 0
 380.5 49.599609375 491.69921875 52.7998046875 491.69921875 99.2001953125 c 0
 491.69921875 165.599609375 490.099609375 359.200195312 490.099609375 468.799804688 c 0
 490.099609375 528 378.900390625 544.799804688 295.69921875 544.799804688 c 0
 201.30078125 544.799804688 129.30078125 507.200195312 124.5 468.799804688 c 1
EndSplineSet
Validated: 524289
EndChar

StartChar: B
Encoding: 66 66 44
Width: 635
VWidth: 0
Flags: W
HStem: 2.40039 48.7998<180.426 445.888> 604.8 57.6006<185.446 465.852>
VStem: 58.6992 83.2012<0 17.5996 80.381 571.491 640.8 1136> 506.699 69.6016<98.6158 571.646>
LayerCount: 3
Fore
SplineSet
58.69921875 103.200195312 m 1
 58.69921875 166.400390625 58.69921875 365.599609375 58.69921875 534.400390625 c 0
 58.69921875 768.799804688 58.69921875 1136 58.69921875 1136 c 1
 142.69921875 1136 l 25
 142.69921875 640.799804688 l 1
 142.69921875 640.799804688 251.5 662.400390625 310.69921875 662.400390625 c 0
 421.099609375 662.400390625 576.30078125 656.799804688 576.30078125 536 c 0
 576.30078125 424.799804688 574.69921875 168.799804688 574.69921875 108.799804688 c 0
 574.69921875 34.400390625 453.099609375 2.400390625 327.5 2.400390625 c 0
 261.099609375 2.400390625 141.099609375 17.599609375 141.099609375 17.599609375 c 1
 141.099609375 0 l 1
 58.69921875 0 l 1
 58.69921875 103.200195312 l 1
141.900390625 108.799804688 m 1
 141.900390625 72 233.099609375 51.2001953125 329.900390625 51.2001953125 c 0
 415.5 51.2001953125 504.30078125 85.599609375 504.30078125 132 c 0
 504.30078125 198.400390625 506.69921875 426.400390625 506.69921875 536 c 0
 506.69921875 595.200195312 395.5 604.799804688 312.30078125 604.799804688 c 0
 214.69921875 604.799804688 141.900390625 576.799804688 141.900390625 536 c 0
 141.900390625 432.799804688 141.900390625 162.400390625 141.900390625 108.799804688 c 1
EndSplineSet
Validated: 524289
EndChar

StartChar: C
Encoding: 67 67 45
Width: 577
VWidth: 0
Flags: W
HStem: 0 49.5996<150.684 399.171> 603.2 57.5996<154.951 435.632>
VStem: 30.8789 79.2012<81.4869 107.2 534.4 568.173> 475.68 70.4414<108.918 147.726 534.4 569.273>
LayerCount: 3
Fore
SplineSet
546.080078125 534.400390625 m 1
 546.080078125 533.599609375 l 0
 546.080078125 654.400390625 390.87890625 660.799804688 280.48046875 660.799804688 c 0
 164.48046875 660.799804688 30.87890625 648 30.87890625 534.400390625 c 0
 30.87890625 429.599609375 30.87890625 165.599609375 30.87890625 102.400390625 c 0
 30.87890625 6.400390625 184.15625 -0.8544921875 315.353515625 0 c 0
 468.13671875 0.9951171875 546.12109375 71.396484375 546.12109375 147.200195312 c 3
 546.12109375 148.525390625 499.732421875 146.955078125 475.6796875 148 c 1
 475.6796875 101.599609375 385.279296875 49.599609375 299.6796875 49.599609375 c 0
 202.87890625 49.599609375 110.080078125 70.400390625 110.080078125 107.200195312 c 0
 110.080078125 160.799804688 110.87890625 431.200195312 110.87890625 534.400390625 c 0
 110.87890625 575.200195312 184.48046875 603.200195312 282.080078125 603.200195312 c 0
 365.279296875 603.200195312 476.48046875 593.599609375 476.48046875 534.400390625 c 0
 531.353515625 534.400390625 487.353515625 534.400390625 546.080078125 534.400390625 c 1
EndSplineSet
Validated: 524325
EndChar

StartChar: D
Encoding: 68 68 46
Width: 623
VWidth: 0
Flags: W
HStem: 14.4004 48.7998<183.112 448.573> 616.8 57.6006<163.147 443.553>
VStem: 52.7002 69.5996<110.616 144 548 583.646> 487.1 83.2002<92.381 120.8 548 583.491>
LayerCount: 3
Fore
SplineSet
570.299804688 115.200195312 m 1
 570.299804688 178.400390625 570.299804688 377.599609375 570.299804688 546.400390625 c 0
 570.299804688 780.799804688 570.299804688 1148 570.299804688 1148 c 1
 486.299804688 1148 l 25
 486.299804688 652.799804688 l 1
 486.299804688 652.799804688 377.5 674.400390625 318.299804688 674.400390625 c 0
 207.899414062 674.400390625 52.7001953125 668.799804688 52.7001953125 548 c 0
 52.7001953125 436.799804688 54.2998046875 180.799804688 54.2998046875 120.799804688 c 0
 54.2998046875 46.400390625 175.899414062 14.400390625 301.5 14.400390625 c 0
 367.899414062 14.400390625 487.899414062 29.599609375 487.899414062 29.599609375 c 1
 487.899414062 12 l 1
 570.299804688 12 l 1
 570.299804688 115.200195312 l 1
487.099609375 120.799804688 m 1
 487.099609375 84 395.899414062 63.2001953125 299.099609375 63.2001953125 c 0
 213.5 63.2001953125 124.700195312 97.599609375 124.700195312 144 c 0
 124.700195312 210.400390625 122.299804688 438.400390625 122.299804688 548 c 0
 122.299804688 607.200195312 233.5 616.799804688 316.700195312 616.799804688 c 0
 414.299804688 616.799804688 487.099609375 588.799804688 487.099609375 548 c 0
 487.099609375 444.799804688 487.099609375 174.400390625 487.099609375 120.799804688 c 1
EndSplineSet
Validated: 524297
EndChar

StartChar: E
Encoding: 69 69 47
Width: 604
VWidth: 0
Flags: W
HStem: 4 49.5996<162.293 465.741> 632.158 48.6416<244.431 467.738>
VStem: 43.8516 67.1992<97.0716 405.6> 483.109 74.5234<463.239 617.395> 500.971 59.9785<89.7147 209.596>
LayerCount: 3
Fore
SplineSet
43.05078125 441.599609375 m 0xe8
 43.05078125 555.200195312 82.9345703125 632.505859375 175.051757812 653.599609375 c 0
 216.1953125 663.021484375 317.288085938 680.799804688 368.651367188 680.799804688 c 0
 448.119140625 680.799804688 516.084960938 662.482421875 539.8515625 615.200195312 c 0
 564.651367188 565.861328125 557.6328125 549.110351562 557.6328125 471.200195312 c 0xf0
 557.6328125 460.811523438 557.818359375 421.881835938 557.818359375 410.400390625 c 1
 418.618164062 410.400390625 114.250976562 405.599609375 114.250976562 405.599609375 c 1
 114.250976562 344 111.05078125 235.200195312 111.05078125 157.599609375 c 0
 111.05078125 64.740234375 207.779296875 53.599609375 304.651367188 53.599609375 c 0
 345.482421875 53.599609375 405.4375 59.6376953125 447.05078125 66.400390625 c 0
 498.250976562 74.720703125 500.970703125 164.83203125 500.970703125 196.704101562 c 0
 500.970703125 204.671875 500.651367188 209.599609375 500.651367188 209.599609375 c 1
 499.8984375 209.412109375 498.92578125 209.3125 498.92578125 209.270507812 c 0
 498.92578125 209.251953125 499.096679688 209.244140625 499.524414062 209.244140625 c 0
 502.428710938 209.244140625 506.784179688 210.400390625 560.651367188 210.400390625 c 1
 560.651367188 190.0703125 560.94921875 170.338867188 560.94921875 152.612304688 c 0
 560.94921875 120.11328125 559.9453125 94.353515625 554.250976562 84 c 0
 534.250976562 48.7998046875 502.250976562 4 287.05078125 4 c 0
 191.05078125 4 43.8515625 39.2001953125 43.8515625 138.400390625 c 0
 43.8515625 284 43.05078125 441.599609375 43.05078125 441.599609375 c 0xe8
461.451171875 463.200195312 m 1
 461.451171875 464 483.109375 466.400390625 483.109375 467.200195312 c 0
 483.109375 576 503.8515625 632.158203125 394.250976562 632.158203125 c 0
 318.6640625 632.158203125 214.018554688 615.29296875 155.8515625 566.797851562 c 0
 124.750976562 540.869140625 112.651367188 497.275390625 112.651367188 461.599609375 c 1
 198.250976562 461.599609375 461.451171875 463.200195312 461.451171875 463.200195312 c 1
EndSplineSet
Validated: 524325
EndChar

StartChar: F
Encoding: 70 70 48
Width: 369
VWidth: 0
Flags: W
HStem: 728 54.4004<25.3955 107.604 190.996 267.604> 1166.4 31.5244<209.138 342.372>
VStem: 108.787 78.4004<4.7998 728 783.2 1143.72>
LayerCount: 3
Fore
SplineSet
107.795898438 783.200195312 m 1
 107.795898438 860.770507812 108.83984375 1033.12988281 111.795898438 1098.40039062 c 0
 113.875 1144.32519531 164.328125 1190.86230469 249.075195312 1197.92480469 c 0
 287.475585938 1201.125 343.795898438 1196 343.795898438 1196 c 0
 343.795898438 1196 340.7109375 1164.28320312 343.795898438 1168.79980469 c 0
 343.795898438 1168.79980469 341.6328125 1167.00585938 272.595703125 1166.40039062 c 0
 181.395507812 1165.59960938 188.595703125 1124 188.595703125 1043.20019531 c 0
 188.595703125 932.799804688 191.604492188 802.400390625 190.99609375 782.400390625 c 1
 267.795898438 782.400390625 l 1
 267.604492188 728 l 1
 186.00390625 728 l 1
 187.1875 4.7998046875 l 1
 108.787109375 4.7998046875 l 1
 107.604492188 728 l 1
 25.2041015625 728 l 1
 25.3955078125 782.400390625 l 1
 107.795898438 783.200195312 l 1
EndSplineSet
Validated: 524325
EndChar

StartChar: G
Encoding: 71 71 49
Width: 532
VWidth: 0
Flags: W
HStem: -508 27.2002<55.5557 246.415> 5.59961 51.2002<141.878 366.521> 610.4 57.5996<158.587 371.652>
VStem: 55.5557 75.2002<71.4439 108 535.2 581.823> 405.155 66.4004<-452.901 -377.6 89.0997 129.6 533.6 580.878 633.544 664>
LayerCount: 3
Fore
SplineSet
306.755859375 -514.400390625 m 17
 402.755859375 -514.400390625 471.555664062 -508.799804688 471.555664062 -409.599609375 c 0
 471.555664062 -62.400390625 476.35546875 533.599609375 476.35546875 533.599609375 c 1
 476.35546875 533.599609375 477.155273438 615.200195312 477.155273438 664 c 1
 405.155273438 664 l 1
 405.155273438 656.799804688 405.155273438 632 405.155273438 633.599609375 c 1
 349.955078125 657.599609375 318.755859375 668 256.35546875 668 c 0
 140.35546875 668 55.5556640625 648.799804688 55.5556640625 535.200195312 c 2
 55.5556640625 103.200195312 l 2
 55.5556640625 7.2001953125 256.35546875 5.599609375 256.35546875 5.599609375 c 1
 357.955078125 5.599609375 405.155273438 28 405.155273438 28 c 1
 405.155273438 -377.599609375 l 1
 405.155273438 -440.799804688 405.155273438 -450.400390625 376.35546875 -456.799804688 c 0
 281.155273438 -476.799804688 55.5556640625 -480.799804688 55.5556640625 -480.799804688 c 1
 55.5556640625 -480.799804688 53.955078125 -497.599609375 55.5556640625 -508 c 1
 306.755859375 -514.400390625 l 17
405.155273438 533.599609375 m 0
 405.155273438 424 405.155273438 196 405.155273438 129.599609375 c 0
 405.155273438 83.2001953125 341.955078125 56.7998046875 256.35546875 56.7998046875 c 0
 159.555664062 56.7998046875 130.755859375 71.2001953125 130.755859375 108 c 0
 130.755859375 161.599609375 130.755859375 432 130.755859375 535.200195312 c 0
 130.755859375 576 158.755859375 610.400390625 256.35546875 610.400390625 c 0
 339.555664062 610.400390625 405.155273438 592.799804688 405.155273438 533.599609375 c 0
EndSplineSet
Validated: 524293
EndChar

StartChar: H
Encoding: 72 72 50
Width: 593
VWidth: 0
Flags: W
HStem: 597.6 36.8008<296.577 467.565>
VStem: 40.1006 72<1.00458 514.355> 478.5 70.4004<-1.59961 587.487>
LayerCount: 3
Fore
SplineSet
478.5 -1.599609375 m 1
 548.900390625 -1.599609375 l 1
 555.299804688 9.599609375 552.100585938 316.799804688 552.100585938 548 c 0
 552.100585938 609.599609375 500.100585938 634.400390625 431.299804688 634.400390625 c 0
 300.100585938 634.400390625 102.5 556.799804688 102.5 556.799804688 c 0
 102.5 556.799804688 102.5 1115.20019531 102.5 1134.40039062 c 0
 40.1005859375 1134.40039062 l 1
 40.1005859375 861.599609375 40.1005859375 158.400390625 40.1005859375 0.7998046875 c 1
 109.700195312 0.7998046875 l 1
 109.700195312 0.7998046875 112.100585938 282.400390625 112.100585938 458.400390625 c 0
 112.100585938 547.200195312 252.100585938 597.599609375 358.5 597.599609375 c 0
 424.100585938 597.599609375 477.700195312 603.200195312 477.700195312 548 c 0
 477.700195312 332 478.5 -9.599609375 478.5 -1.599609375 c 1
EndSplineSet
Validated: 524325
EndChar

StartChar: I
Encoding: 73 73 51
Width: 202
VWidth: 0
Flags: W
HStem: 0 21G<58.0342 137.234> 656.8 88<63.4399 138.56>
VStem: 57 88<663.24 738.36> 58.0342 79.2002<0 552.8>
LayerCount: 3
Fore
SplineSet
57 700.799804688 m 0xe0
 57 724.799804688 77 744.799804688 101 744.799804688 c 0
 125 744.799804688 145 724.799804688 145 700.799804688 c 0
 145 676.799804688 125 656.799804688 101 656.799804688 c 0
 77 656.799804688 57 676.799804688 57 700.799804688 c 0xe0
137.234375 0 m 1xd0
 58.0341796875 0 l 1
 58.0341796875 552.799804688 l 1
 137.234375 552.799804688 l 1
 137.234375 0 l 1xd0
EndSplineSet
Validated: 524289
EndChar

StartChar: J
Encoding: 74 74 52
Width: 298
VWidth: 0
Flags: W
HStem: -519.645 27.9873<28.957 156.613> 664 88<187.483 262.603>
VStem: 181.043 88<670.44 745.56> 186.393 72.25<-470.079 -326.4>
LayerCount: 3
Fore
SplineSet
28.95703125 -518.974609375 m 17xd0
 41.9375 -519.415039062 55.859375 -519.64453125 70.791015625 -519.64453125 c 0
 166.791015625 -519.64453125 258.642578125 -507.200195312 258.642578125 -408 c 0
 258.642578125 -320 258.642578125 -62.400390625 258.642578125 138.400390625 c 0
 258.642578125 485.599609375 258.642578125 526.400390625 258.642578125 526.400390625 c 1
 258.642578125 526.400390625 258.642578125 493.599609375 258.642578125 542.400390625 c 1
 185.59375 542.400390625 l 1
 186.392578125 -326.400390625 l 2
 186.423828125 -358.942382812 187.275390625 -445.869140625 169.7578125 -467.200195312 c 0
 137.251953125 -506.779296875 28.95703125 -491.657226562 28.95703125 -491.657226562 c 1
 28.95703125 -518.974609375 l 17xd0
181.04296875 708 m 0xe0
 181.04296875 732 201.04296875 752 225.04296875 752 c 0
 249.04296875 752 269.04296875 732 269.04296875 708 c 0
 269.04296875 684 249.04296875 664 225.04296875 664 c 0
 201.04296875 664 181.04296875 684 181.04296875 708 c 0xe0
28.95703125 -518.974609375 m 1025
EndSplineSet
Validated: 524325
EndChar

StartChar: K
Encoding: 75 75 53
Width: 601
VWidth: 0
Flags: W
VStem: 45.0996 68.8008<6.23549 502>
LayerCount: 3
Fore
SplineSet
392.75390625 809.200195312 m 1
 113.900390625 563.599609375 l 1
 113.900390625 1138.79980469 l 1
 45.099609375 1138.79980469 l 1
 45.099609375 866 47.099609375 163.599609375 47.099609375 6 c 1
 117.5 6 l 1
 117.5 6 117.099609375 330 117.099609375 502 c 1
 240.299804688 322.799804688 491.099609375 1.2001953125 485.5 6 c 1
 555.900390625 6 l 1
 551.099609375 18 177.900390625 531.599609375 177.900390625 531.599609375 c 1
 443.954101562 758 l 1
 392.75390625 809.200195312 l 1
EndSplineSet
Validated: 524325
EndChar

StartChar: L
Encoding: 76 76 54
Width: 236
VWidth: 0
Flags: W
HStem: -0.799805 21G<84.273 158.801> 1109.6 20G<77.1992 157.228>
VStem: 77.1992 80<30.779 1129.6> 84.4004 74.4004<0 1098.02>
LayerCount: 3
Fore
SplineSet
158.80078125 0 m 1xd0
 84.400390625 -0.7998046875 l 1xd0
 77.19921875 1129.59960938 l 1
 157.19921875 1129.59960938 l 1xe0
 158.80078125 0 l 1xd0
EndSplineSet
Validated: 524289
EndChar

StartChar: M
Encoding: 77 77 55
Width: 1050
VWidth: 0
Flags: W
HStem: 0 21G<482.6 555.884 931.4 1005> 599.2 36.7998<301.698 471.247 709.481 920.465>
VStem: 47.4004 68.7998<2.60516 515.955 562.435 636> 482.6 70.4004<0 533.834> 930.6 74.4004<0 589.087>
LayerCount: 3
Fore
SplineSet
532.201171875 582.400390625 m 1
 532.201171875 582.400390625 753 636 884.200195312 636 c 0
 953 636 1005 611.200195312 1005 549.599609375 c 0
 1005 318.400390625 1008.20019531 11.2001953125 1001.79980469 0 c 1
 931.400390625 0 l 1
 931.400390625 -8 930.599609375 333.599609375 930.599609375 549.599609375 c 0
 930.599609375 604.799804688 877 599.200195312 811.400390625 599.200195312 c 0
 705 599.200195312 559.400390625 587.200195312 556.282226562 479.200195312 c 0
 549.973632812 260.673828125 558.767578125 10.0927734375 553 0 c 1
 482.599609375 0 l 1
 482.599609375 -8 481.799804688 333.599609375 481.799804688 549.599609375 c 0
 481.799804688 604.799804688 428.200195312 599.200195312 362.599609375 599.200195312 c 0
 256.200195312 599.200195312 116.200195312 548.799804688 116.200195312 460 c 0
 116.200195312 284 113.799804688 2.400390625 113.799804688 2.400390625 c 1
 44.2001953125 2.400390625 l 1
 44.2001953125 160 47.400390625 363.200195312 47.400390625 636 c 1
 116.200195312 636 l 1
 116.200195312 636 116.200195312 633.599609375 116.200195312 629.599609375 c 0
 116.200195312 610.400390625 115.400390625 562.400390625 115.400390625 562.400390625 c 0
 115.400390625 562.400390625 304.200195312 636 435.400390625 636 c 0
 489.865234375 636 516.255859375 619.4375 532.201171875 582.400390625 c 1
EndSplineSet
Validated: 524321
EndChar

StartChar: N
Encoding: 78 78 56
Width: 607
VWidth: 0
Flags: W
HStem: 598.4 36.7998<304.597 474.565>
VStem: 50.2998 68.7998<1.80438 515.155 561.634 628.8> 485.5 70.3994<-0.799805 588.288>
LayerCount: 3
Fore
SplineSet
485.5 -0.7998046875 m 1
 555.899414062 -0.7998046875 l 1
 562.299804688 10.400390625 559.099609375 317.599609375 559.099609375 548.799804688 c 0
 559.099609375 610.400390625 507.099609375 635.200195312 438.299804688 635.200195312 c 0
 307.099609375 635.200195312 118.299804688 561.599609375 118.299804688 561.599609375 c 0
 118.299804688 561.599609375 119.099609375 609.599609375 119.099609375 628.799804688 c 0
 119.099609375 632.799804688 119.099609375 635.200195312 119.099609375 635.200195312 c 1
 50.2998046875 635.200195312 l 1
 50.2998046875 362.400390625 47.099609375 159.200195312 47.099609375 1.599609375 c 1
 116.700195312 1.599609375 l 1
 116.700195312 1.599609375 119.099609375 283.200195312 119.099609375 459.200195312 c 0
 119.099609375 548 259.099609375 598.400390625 365.5 598.400390625 c 0
 431.099609375 598.400390625 484.700195312 604 484.700195312 548.799804688 c 0
 484.700195312 332.799804688 485.5 -8.7998046875 485.5 -0.7998046875 c 1
EndSplineSet
Validated: 524325
EndChar

StartChar: O
Encoding: 79 79 57
Width: 572
VWidth: 0
Flags: W
HStem: -0.799805 52.7998<141.257 427.889> 608.8 50.4004<166.613 401.362>
VStem: 40 61.6006<82.6954 557.586> 467.2 63.2002<82.6954 557.586>
LayerCount: 3
Fore
SplineSet
282.400390625 52 m 0
 368 52 467.200195312 68 467.200195312 114.400390625 c 0
 467.200195312 180.799804688 464 408 464 517.599609375 c 0
 464 576.799804688 367.200195312 608.799804688 284 608.799804688 c 0
 200.80078125 608.799804688 101.600585938 576.799804688 101.600585938 517.599609375 c 0
 101.600585938 408 103.200195312 180.799804688 103.200195312 114.400390625 c 0
 103.200195312 68 196.80078125 52 282.400390625 52 c 0
284 -0.7998046875 m 1
 158.400390625 -0.7998046875 41.6005859375 31.2001953125 41.6005859375 105.599609375 c 0
 41.6005859375 165.599609375 40 415.200195312 40 526.400390625 c 0
 40 647.200195312 173.600585938 659.200195312 284 659.200195312 c 1
 394.400390625 659.200195312 532 647.200195312 532 526.400390625 c 0
 532 415.200195312 530.400390625 165.599609375 530.400390625 105.599609375 c 0
 530.400390625 31.2001953125 410.400390625 -0.7998046875 284 -0.7998046875 c 1
EndSplineSet
Validated: 524289
EndChar

StartChar: P
Encoding: 80 80 58
Width: 619
VWidth: 0
Flags: W
HStem: 0 57.5996<177.446 457.852> 611.2 48.7998<172.426 437.888> 644.8 21G<133.1 133.1>
VStem: 50.6992 83.2012<90.9087 126.4 553.6 582.019> 498.699 69.6016<90.7536 126.4 530.4 563.784>
LayerCount: 3
Fore
SplineSet
50.69921875 559.200195312 m 1xb8
 50.69921875 496 50.69921875 296.799804688 50.69921875 128 c 0
 50.69921875 -106.400390625 50.69921875 -473.599609375 50.69921875 -473.599609375 c 1
 134.69921875 -473.599609375 l 25
 134.69921875 21.599609375 l 1
 134.69921875 21.599609375 243.5 0 302.69921875 0 c 0
 413.099609375 0 568.30078125 5.599609375 568.30078125 126.400390625 c 0
 568.30078125 237.599609375 566.69921875 493.599609375 566.69921875 553.599609375 c 0
 566.69921875 628 445.099609375 660 319.5 660 c 0xd8
 253.099609375 660 133.099609375 644.799804688 133.099609375 644.799804688 c 1
 133.099609375 662.400390625 l 1
 50.69921875 662.400390625 l 1
 50.69921875 559.200195312 l 1xb8
133.900390625 553.599609375 m 1
 133.900390625 590.400390625 225.099609375 611.200195312 321.900390625 611.200195312 c 0
 407.5 611.200195312 496.30078125 576.799804688 496.30078125 530.400390625 c 0
 496.30078125 464 498.69921875 236 498.69921875 126.400390625 c 0
 498.69921875 67.2001953125 387.5 57.599609375 304.30078125 57.599609375 c 0
 206.69921875 57.599609375 133.900390625 85.599609375 133.900390625 126.400390625 c 0
 133.900390625 229.599609375 133.900390625 500 133.900390625 553.599609375 c 1
EndSplineSet
Validated: 524297
EndChar

StartChar: Q
Encoding: 81 81 59
Width: 616
VWidth: 0
Flags: W
HStem: -12 57.5996<159.648 440.054> 599.2 48.7998<179.612 445.074>
VStem: 49.2002 69.5996<78.7536 551.784> 482.8 84<-485.6 9.59961 78.9087 570.019 632.8 650.4>
LayerCount: 3
Fore
SplineSet
566.799804688 547.200195312 m 1
 566.799804688 484 566.799804688 284.799804688 566.799804688 116 c 0
 566.799804688 -118.400390625 566.799804688 -485.599609375 566.799804688 -485.599609375 c 1
 482.799804688 -485.599609375 l 25
 482.799804688 9.599609375 l 1
 482.799804688 9.599609375 374 -12 314.799804688 -12 c 0
 204.400390625 -12 49.2001953125 -6.400390625 49.2001953125 114.400390625 c 0
 49.2001953125 225.599609375 50.7998046875 481.599609375 50.7998046875 541.599609375 c 0
 50.7998046875 616 172.400390625 648 298 648 c 0
 364.400390625 648 484.400390625 632.799804688 484.400390625 632.799804688 c 1
 484.400390625 650.400390625 l 1
 566.799804688 650.400390625 l 1
 566.799804688 547.200195312 l 1
483.600585938 541.599609375 m 1
 483.600585938 578.400390625 392.400390625 599.200195312 295.600585938 599.200195312 c 0
 210 599.200195312 121.200195312 564.799804688 121.200195312 518.400390625 c 0
 121.200195312 452 118.799804688 224 118.799804688 114.400390625 c 0
 118.799804688 55.2001953125 230 45.599609375 313.200195312 45.599609375 c 0
 410.799804688 45.599609375 483.600585938 73.599609375 483.600585938 114.400390625 c 0
 483.600585938 217.599609375 483.600585938 488 483.600585938 541.599609375 c 1
EndSplineSet
Validated: 524289
EndChar

StartChar: R
Encoding: 82 82 60
Width: 569
VWidth: 0
Flags: W
HStem: 604.8 38.4004<280.029 459.788>
VStem: 31.7002 68.7998<9.80438 512.873 569.634 636.8>
LayerCount: 3
Fore
SplineSet
540.5 556.799804688 m 1
 540.5 618.400390625 488.5 643.200195312 419.700195312 643.200195312 c 0
 288.5 643.200195312 99.7001953125 569.599609375 99.7001953125 569.599609375 c 0
 99.7001953125 569.599609375 100.5 617.599609375 100.5 636.799804688 c 0
 100.5 640.799804688 100.5 643.200195312 100.5 643.200195312 c 1
 31.7001953125 643.200195312 l 1
 31.7001953125 370.400390625 28.5 167.200195312 28.5 9.599609375 c 1
 98.099609375 9.599609375 l 1
 98.099609375 9.599609375 100.5 291.200195312 100.5 467.200195312 c 0
 100.5 556 305.299804688 604.799804688 411.700195312 604.799804688 c 0
 477.299804688 604.799804688 466.099609375 556.799804688 466.099609375 556.799804688 c 1
 466.099609375 556.799804688 511.700195312 556.799804688 540.5 556.799804688 c 1
EndSplineSet
Validated: 524329
EndChar

StartChar: S
Encoding: 83 83 61
Width: 611
VWidth: 0
Flags: W
HStem: 12 67.2002<193.9 476.06>
VStem: 497.101 70.3994<100.82 270.701>
LayerCount: 3
Fore
SplineSet
567.5 191.200195312 m 0
 567.5 154.400390625 567.5 146.400390625 567.5 128 c 0
 567.5 38.400390625 474.700195312 12 337.100585938 12 c 0
 265.100585938 12 218.700195312 15.2001953125 43.5 93.599609375 c 1
 55.5 117.599609375 l 1
 69.1005859375 151.200195312 l 1
 224.30078125 82.400390625 260.30078125 79.2001953125 337.100585938 79.2001953125 c 0
 433.900390625 79.2001953125 482.700195312 84.7998046875 494.700195312 128 c 0
 494.700195312 128 497.100585938 171.200195312 497.100585938 183.200195312 c 0
 497.100585938 324 376.54296875 377.423828125 213.100585938 440.799804688 c 0
 173.900390625 456 135.423828125 458.400390625 135.423828125 493.599609375 c 0
 135.423828125 525.599609375 131.423828125 595.200195312 172.223632812 618.400390625 c 0
 291.423828125 686.400390625 390.700195312 708 549.100585938 592.799804688 c 1
 549.100585938 592.799804688 518.700195312 548 512.30078125 559.200195312 c 1
 191.5 760 183.5 523.200195312 233.900390625 503.200195312 c 0
 494.700195312 401.599609375 567.5 351.200195312 567.5 191.200195312 c 0
EndSplineSet
Validated: 524321
EndChar

StartChar: U
Encoding: 85 85 62
Width: 575
VWidth: 0
Flags: W
HStem: 0 36.7998<116.436 286.403>
VStem: 31.9004 74.4004<46.6846 626.967> 471.9 68.8008<6.40039 73.5647 120.045 633.395>
LayerCount: 3
Fore
SplineSet
107.099609375 627.200195312 m 1
 33.5 627.200195312 l 1
 33.5 627.200195312 31.900390625 312 31.900390625 81.599609375 c 0
 31.900390625 20 83.900390625 0 152.701171875 0 c 0
 283.900390625 0 472.701171875 73.599609375 472.701171875 73.599609375 c 0
 472.701171875 73.599609375 471.900390625 25.599609375 471.900390625 6.400390625 c 0
 471.900390625 2.400390625 471.900390625 0 471.900390625 0 c 1
 540.701171875 0 l 1
 540.701171875 272.799804688 543.099609375 476 543.099609375 633.599609375 c 1
 474.30078125 633.599609375 l 1
 474.30078125 633.599609375 471.900390625 352 471.900390625 176 c 0
 471.900390625 87.2001953125 331.900390625 36.7998046875 225.5 36.7998046875 c 0
 159.900390625 36.7998046875 106.30078125 31.2001953125 106.30078125 86.400390625 c 0
 106.30078125 302.400390625 107.099609375 627.200195312 107.099609375 627.200195312 c 1
EndSplineSet
Validated: 524329
EndChar

StartChar: V
Encoding: 86 86 63
Width: 635
VWidth: 0
Flags: W
HStem: 0 21G<295.09 393.9> 604 20G<41.0996 123.215 512.46 593.9>
LayerCount: 3
Fore
SplineSet
303.5 0 m 1
 41.099609375 624 l 1
 114.69921875 624 l 1
 114.69921875 624 229.900390625 332 325.900390625 128 c 1
 421.900390625 332 520.298828125 624 520.298828125 624 c 1
 593.900390625 624 l 1
 593.900390625 624 437.900390625 218.400390625 349.900390625 0 c 1
 303.5 0 303.5 0 303.5 0 c 1
EndSplineSet
Validated: 524289
EndChar

StartChar: W
Encoding: 87 87 64
Width: 922
VWidth: 0
Flags: W
HStem: 0 21G<306.989 377.7 557.775 669> 604 20G<53 135.116 787.561 869>
LayerCount: 3
Fore
SplineSet
433.50390625 354.002929688 m 9
 500.39453125 354.7421875 l 1
 500.39453125 354.7421875 567.911132812 198.313476562 601 128 c 1
 697 332 795.399414062 624 795.399414062 624 c 1
 869 624 l 1
 869 624 713 218.400390625 625 0 c 1
 578.599609375 0 578.599609375 0 578.599609375 0 c 1
 536.951171875 94.1103515625 512.34765625 168.290039062 465.799804688 262.400390625 c 1
 426.809570312 162.559570312 393.600585938 78.9228515625 361.799804688 0 c 1
 315.399414062 0 315.399414062 0 315.399414062 0 c 1
 53 624 l 1
 126.599609375 624 l 1
 126.599609375 624 241.799804688 332 337.799804688 128 c 1
 370.780273438 198.083984375 404.043945312 278.5546875 433.50390625 354.002929688 c 9
EndSplineSet
Validated: 524289
EndChar

StartChar: X
Encoding: 88 88 65
Width: 533
VWidth: 0
Flags: W
HStem: 624.8 20G<105.7 192.149 353.125 440.101>
LayerCount: 3
Fore
SplineSet
116.900390625 2.400390625 m 1
 42.5 2.400390625 l 1
 75.30078125 67.2001953125 170.5 242.400390625 230.5 384 c 1
 105.700195312 644.799804688 l 1
 182.5 644.799804688 l 1
 270.5 462.400390625 l 1
 363.30078125 644.799804688 l 1
 440.100585938 644.799804688 l 1
 376.900390625 526.400390625 378.5 521.599609375 312.100585938 387.200195312 c 1
 490.5 2.400390625 l 1
 419.30078125 2.400390625 l 1
 272.100585938 318.400390625 l 1
 272.100585938 318.400390625 116.900390625 4.7998046875 116.900390625 2.400390625 c 1
EndSplineSet
Validated: 524289
EndChar

StartChar: Y
Encoding: 89 89 66
Width: 624
VWidth: 0
Flags: W
HStem: 613.6 20G<35.5996 117.715 506.962 588.4>
LayerCount: 3
Fore
SplineSet
123.599609375 -504 m 1
 106 -504 86.80078125 -497.599609375 68.400390625 -492 c 1
 306 93.599609375 298 69.599609375 291.599609375 69.599609375 c 1
 35.599609375 633.599609375 l 1
 109.19921875 633.599609375 l 1
 109.19921875 633.599609375 224.400390625 341.599609375 320.400390625 137.599609375 c 1
 416.400390625 341.599609375 514.80078125 633.599609375 514.80078125 633.599609375 c 1
 588.400390625 633.599609375 l 1
 588.400390625 633.599609375 378 93.599609375 123.599609375 -504 c 1
EndSplineSet
Validated: 524321
EndChar

StartChar: Z
Encoding: 90 90 67
Width: 646
VWidth: 0
Flags: W
HStem: 0 64<194.6 597.8> 564 48.7998<101.8 456.2>
LayerCount: 3
Fore
SplineSet
101.799804688 564 m 1
 101.799804688 612.799804688 l 1
 565.799804688 612.799804688 l 2
 194.599609375 64 l 1
 565.799804688 64 l 1
 597.799804688 64 l 1
 597.799804688 32 l 1
 597.799804688 0 l 1
 565.799804688 0 l 2
 48.2001953125 0 l 1
 456.200195312 564 l 1
 101.799804688 564 l 1
EndSplineSet
Validated: 524289
EndChar
